<svg width="760" height="180" viewBox="0 0 760 180" fill="none" xmlns="http://www.w3.org/2000/svg">
  <g stroke="#7F8C97" stroke-linecap="round" stroke-linejoin="round">
    <path d="M18 116H126C154 116 158 78 190 78H278C310 78 308 122 343 122H444C474 122 472 70 507 70H742" stroke-width="1.25" opacity=".30"/>
    <path d="M66 148H198C225 148 227 108 254 108H404C430 108 432 142 458 142H592C622 142 620 104 650 104H746" stroke-width="1" opacity=".20"/>
    <path d="M130 42H236C264 42 266 64 294 64H392C420 64 422 30 450 30H604C632 30 634 54 662 54H744" stroke-width="1" opacity=".22"/>
    <path d="M326 64V122M507 70V142M604 30V104" stroke-width="1" opacity=".16" stroke-dasharray="4 6"/>
  </g>
  <g fill="#F7F9FA" stroke="#87939D">
    <circle cx="126" cy="116" r="5.5" stroke-opacity=".45"/>
    <circle cx="190" cy="78" r="7" stroke-opacity=".48"/>
    <rect x="270" y="57" width="15" height="15" rx="4" stroke-opacity=".42"/>
    <circle cx="343" cy="122" r="6" stroke-opacity=".45"/>
    <circle cx="444" cy="122" r="4.5" stroke-opacity=".36"/>
    <rect x="499" y="62" width="16" height="16" rx="4" stroke-opacity=".42"/>
    <circle cx="592" cy="142" r="5.5" stroke-opacity=".38"/>
    <circle cx="650" cy="104" r="6" stroke-opacity=".42"/>
    <circle cx="662" cy="54" r="5.5" stroke-opacity=".38"/>
  </g>
  <g fill="#E9661E">
    <circle cx="294" cy="64" r="4" opacity=".78"/>
    <circle cx="507" cy="70" r="5" opacity=".86"/>
    <circle cx="620" cy="104" r="3.5" opacity=".64"/>
  </g>
  <g fill="#A7B2BC" opacity=".32">
    <circle cx="548" cy="92" r="1.8"/><circle cx="558" cy="92" r="1.8"/><circle cx="568" cy="92" r="1.8"/>
    <circle cx="548" cy="102" r="1.8"/><circle cx="558" cy="102" r="1.8"/><circle cx="568" cy="102" r="1.8"/>
  </g>
</svg>